{"title":"Ondskan, Evil 2003 DVDrip Swedish Klam","uid":7031083,"size":2036564018,"categoryP":"video","categoryS":"movies","magnet":"?xt=urn:btih:c37963d8b8d4b7e45773fe1acc306bb196a71e88&amp;dn=Ondskan%2C+Evil+2003+DVDrip+Swedish+Klam&amp;tr=udp%3A%2F%2Ftracker.openbittorrent.com%3A80&amp;tr=udp%3A%2F%2Fopen.demonii.com%3A1337&amp;tr=udp%3A%2F%2Ftracker.coppersurfer.tk%3A6969&amp;tr=udp%3A%2F%2Fexodus.desync.com%3A6969","seeders":0,"leechers":0,"uploader":"Klambake","files":-1,"time":1329218069,"description":"With: Andreas Wilson, Henrik LundstrÃƒÂ¶m and Gustaf SkarsgÃƒÂ¥rd\n\nHet leven van Erik is getekend door geweld en conflicten. Wanneer hij van school wordt gestuurd, krijgt hij nog ÃƒÂ©ÃƒÂ©n kans op een internaat. Weet hij daar wel te slagen of valt hij weer terug op zijn oude gewoontes?\n\nErik is expelled from school for fighting. He ends up at a private boarding school where the senior students control the young ones...\n\n------------------------ Dutch Friends ------------------------\n---------------------------------------------------------------\n- Bezoek ook eens mijn vrienden op: &lt;a href=&quot; http://www.Film-Test.nl&quot; rel=&quot;nofollow&quot; target=&quot;_NEW&quot;&gt; http://www.Film-Test.nl&lt;/a&gt; --\n----- voor mijn Nederlandse Sync. ondertitels ---- en meer ----\n------- http://www.Film-Test.nl ---- voor Films en meer -------\n---------------------------------------------------------------\n\nGeneral:\n\nComplete name                    : Ondskan\\\\Ondskan.avi\nFormat                           : AVI\nFormat/Info                      : Audio Video Interleave\nFile size                        : 1.90 GiB\nDuration                         : 1h 48mn\nOverall bit rate                 : 2 495 Kbps\n\nVideo:\n\nFormat                           : MPEG-4 Visual\nFormat profile                   : Simple@L3\nFormat settings, BVOP            : No\nFormat settings, QPel            : No\nFormat settings, GMC             : No warppoints\nFormat settings, Matrix          : Default (H.263)\nCodec ID                         : XVID\nCodec ID/Hint                    : XviD\nDuration                         : 1h 48mn\nBit rate                         : 2 100 Kbps\nWidth                            : 652 pixels\nHeight                           : 352 pixels\nDisplay aspect ratio             : 1.852\nFrame rate                       : 25.000 fps\nColor space                      : YUV\nChroma subsampling               : 4:2:0\nBit depth                        : 8 bits\nScan type                        : Progressive\nCompression mode                 : Lossy\nBits/(Pixel*Frame)               : 0.366\nStream size                      : 1.60 GiB (84%)\nWriting library                  : XviD 1.1.2 (UTC 2006-11-01)\n\nAudio:\n\nFormat                           : AC-3\nFormat/Info                      : Audio Coding 3\nMode extension                   : CM (complete main)\nCodec ID                         : 2000\nDuration                         : 1h 48mn\nBit rate mode                    : Constant\nBit rate                         : 384 Kbps\nChannel(s)                       : 6 channels\nChannel positions                : Front: L C R, Side: L R, LFE\nSampling rate                    : 48.0 KHz\nBit depth                        : 16 bits\nCompression mode                 : Lossy\nStream size                      : 299 MiB (15%)\nAlignment                        : Aligned on interleaves\nInterleave, duration             : 32 ms (0.80 video frame)\nInterleave, preload duration     : 320 ms\n\n","torrent":{"xt":"urn:btih:c37963d8b8d4b7e45773fe1acc306bb196a71e88","amp;dn":"Ondskan%2C+Evil+2003+DVDrip+Swedish+Klam","amp;tr":["udp%3A%2F%2Ftracker.openbittorrent.com%3A80","udp%3A%2F%2Fopen.demonii.com%3A1337","udp%3A%2F%2Ftracker.coppersurfer.tk%3A6969","udp%3A%2F%2Fexodus.desync.com%3A6969"],"infoHash":"c37963d8b8d4b7e45773fe1acc306bb196a71e88","infoHashBuffer":{"type":"Buffer","data":[195,121,99,216,184,212,183,228,87,115,254,26,204,48,107,177,150,167,30,136]},"announce":[],"urlList":[]}}